<svg xmlns="http://www.w3.org/2000/svg" xmlns:xlink="http://www.w3.org/1999/xlink" width="1920" zoomAndPan="magnify" viewBox="0 0 1440 809.999993" height="1080" preserveAspectRatio="xMidYMid meet" version="1.0"><defs><filter x="0%" y="0%" width="100%" height="100%" id="9ef90cd1c6"><feColorMatrix values="0 0 0 0 1 0 0 0 0 1 0 0 0 0 1 0 0 0 1 0" color-interpolation-filters="sRGB"/></filter><g/><mask id="fdd5056a11"><g filter="url(#9ef90cd1c6)"><rect x="-144" width="1728" fill="#000000" y="-80.999999" height="971.999992" fill-opacity="0.28"/></g></mask><clipPath id="7343090ce4"><path d="M 0.558594 0 L 218 0 L 218 229 L 0.558594 229 Z M 0.558594 0 " clip-rule="nonzero"/></clipPath><clipPath id="eef1d9c71b"><rect x="0" width="219" y="0" height="230"/></clipPath><mask id="783aa5d2cf"><g filter="url(#9ef90cd1c6)"><rect x="-144" width="1728" fill="#000000" y="-80.999999" height="971.999992" fill-opacity="0.1"/></g></mask><clipPath id="dcba0d1164"><path d="M 0.558594 0 L 109 0 L 109 178 L 0.558594 178 Z M 0.558594 0 " clip-rule="nonzero"/></clipPath><clipPath id="7638f90db2"><rect x="0" width="110" y="0" height="179"/></clipPath><mask id="4ae92de7d1"><g filter="url(#9ef90cd1c6)"><rect x="-144" width="1728" fill="#000000" y="-80.999999" height="971.999992" fill-opacity="0.5"/></g></mask><clipPath id="94c540ef79"><path d="M 0.558594 0 L 110.71875 0 L 110.71875 229 L 0.558594 229 Z M 0.558594 0 " clip-rule="nonzero"/></clipPath><clipPath id="b8df7dc92e"><rect x="0" width="111" y="0" height="230"/></clipPath><mask id="5ac790b65d"><g filter="url(#9ef90cd1c6)"><rect x="-144" width="1728" fill="#000000" y="-80.999999" height="971.999992" fill-opacity="0.21"/></g></mask><clipPath id="e101fc953d"><path d="M 0.441406 0.480469 L 95 0.480469 L 95 109.441406 L 0.441406 109.441406 Z M 0.441406 0.480469 " clip-rule="nonzero"/></clipPath><clipPath id="3055d1afb6"><rect x="0" width="95" y="0" height="110"/></clipPath><mask id="99d700e5ac"><g filter="url(#9ef90cd1c6)"><rect x="-144" width="1728" fill="#000000" y="-80.999999" height="971.999992" fill-opacity="0.51"/></g></mask><clipPath id="3d6d02cb3f"><path d="M 0.558594 0 L 101.601562 0 L 101.601562 229 L 0.558594 229 Z M 0.558594 0 " clip-rule="nonzero"/></clipPath><clipPath id="1477c10c21"><rect x="0" width="102" y="0" height="230"/></clipPath><mask id="7d477ae273"><g filter="url(#9ef90cd1c6)"><rect x="-144" width="1728" fill="#000000" y="-80.999999" height="971.999992" fill-opacity="0.42"/></g></mask><clipPath id="ed5062cdd9"><path d="M 0.441406 0.28125 L 150.441406 0.28125 L 150.441406 169 L 0.441406 169 Z M 0.441406 0.28125 " clip-rule="nonzero"/></clipPath><clipPath id="fdb24322f0"><rect x="0" width="151" y="0" height="169"/></clipPath></defs><rect x="-144" width="1728" fill="#ffffff" y="-80.999999" height="971.999992" fill-opacity="1"/><rect x="-144" width="1728" fill="#101728" y="-80.999999" height="971.999992" fill-opacity="1"/><g fill="#01ffff" fill-opacity="1"><g transform="translate(323.401982, 568.913157)"><g><path d="M 71.253906 -210.960938 L 71.253906 -368.367188 C 71.253906 -370.230469 69.390625 -372.558594 66.128906 -372.558594 L 5.121094 -372.558594 C 2.328125 -372.558594 0 -370.230469 0 -368.367188 L 0 -210.960938 Z M 278.488281 -372.558594 L 217.480469 -372.558594 C 214.6875 -372.558594 212.359375 -370.230469 212.359375 -368.367188 L 212.359375 -139.242188 L 71.253906 -139.242188 L 71.253906 -139.710938 L 0 -139.710938 L 0 -4.191406 C 0 -2.328125 2.328125 0 5.121094 0 L 66.128906 0 C 69.390625 0 71.253906 -2.328125 71.253906 -4.191406 L 71.253906 -69.855469 L 212.359375 -69.855469 L 212.359375 -4.191406 C 212.359375 -2.328125 214.6875 0 217.480469 0 L 278.488281 0 C 281.746094 0 283.609375 -2.328125 283.609375 -4.191406 L 283.609375 -368.367188 C 283.609375 -370.230469 281.746094 -372.558594 278.488281 -372.558594 Z M 278.488281 -372.558594 "/></g></g></g><path fill="#01ffff" d="M 888.105469 358.789062 L 884.207031 320.277344 C 887.429688 319.457031 889.816406 316.539062 889.816406 313.058594 C 889.816406 309.058594 886.671875 305.804688 882.71875 305.609375 L 880.554688 284.230469 C 882.457031 283.359375 883.738281 281.363281 883.539062 279.09375 C 883.332031 276.660156 881.378906 274.667969 878.953125 274.417969 C 877.667969 274.285156 876.46875 274.625 875.503906 275.28125 C 870.230469 271.730469 860.125 265.351562 846.898438 258.996094 C 845.878906 258.507812 844.824219 258.011719 843.742188 257.511719 C 844.105469 256.191406 844.144531 254.742188 843.613281 253.207031 C 842.625 250.34375 840.007812 248.265625 836.980469 248.089844 C 834.0625 247.925781 831.488281 249.445312 830.121094 251.757812 C 813.335938 245.3125 792.410156 239.652344 770.335938 239.433594 C 763.039062 239.371094 755.671875 240.082031 748.265625 241.558594 C 747.496094 241.710938 746.722656 241.875 745.949219 242.042969 C 744.820312 239.359375 742.164062 237.472656 739.070312 237.472656 C 734.945312 237.472656 731.605469 240.816406 731.605469 244.9375 C 731.605469 245.339844 731.644531 245.730469 731.707031 246.113281 C 727.730469 247.507812 723.75 249.117188 719.777344 250.949219 C 705.839844 257.371094 694.675781 265.203125 686.738281 271.722656 C 685.253906 270.632812 683.359375 270.074219 681.324219 270.34375 C 677.960938 270.789062 675.277344 273.539062 674.914062 276.910156 C 674.429688 281.402344 677.9375 285.203125 682.335938 285.203125 C 684.527344 285.203125 686.484375 284.253906 687.851562 282.75 L 696.921875 288.785156 C 691.269531 290.105469 685.46875 292.003906 679.554688 294.527344 L 739.875 329.003906 C 742.496094 330.503906 744.726562 332.601562 746.382812 335.132812 L 769.648438 370.667969 C 771.46875 373.453125 771.398438 377.0625 769.472656 379.769531 L 756.945312 397.355469 L 764.71875 379.707031 C 765.90625 377.003906 765.527344 373.871094 763.730469 371.539062 L 742.160156 343.480469 L 741.8125 343.03125 C 739.207031 339.53125 735.484375 337.027344 731.261719 335.941406 L 713.355469 331.316406 L 663.65625 318.472656 C 663.652344 318.46875 663.648438 318.46875 663.648438 318.46875 C 663.648438 318.46875 663.648438 318.46875 663.648438 318.472656 C 663.648438 318.480469 663.648438 318.488281 663.652344 318.496094 C 666.894531 333.949219 673.507812 354.070312 670.53125 365.367188 C 667.550781 376.703125 651.003906 397.589844 642.203125 408.128906 C 639.660156 411.179688 641.03125 415.839844 644.828125 417.023438 C 650.199219 418.695312 656.921875 420.898438 660.695312 422.570312 C 664.515625 424.253906 663.53125 428.902344 661.863281 432.75 C 660.5 435.886719 662.292969 439.496094 665.605469 440.34375 L 673.816406 442.457031 L 667.535156 447.976562 C 665.894531 449.421875 666.039062 452.070312 667.875 453.246094 C 671.652344 455.675781 676.046875 461.269531 672.585938 473.824219 C 667.050781 493.914062 681.214844 493.835938 716.632812 495.523438 C 717.445312 495.5625 718.226562 495.625 718.964844 495.714844 C 749.316406 499.359375 716.636719 543.933594 714.492188 546.808594 L 714.394531 546.9375 C 714.390625 546.941406 714.386719 546.953125 714.382812 546.957031 C 765.464844 514.144531 812.808594 501.855469 857.992188 501.429688 C 857.992188 501.429688 852.632812 490.597656 849.242188 476.917969 C 852.066406 475.972656 854.140625 473.394531 854.324219 470.296875 C 854.578125 466.15625 851.171875 462.460938 847.023438 462.378906 C 845.625 462.351562 844.316406 462.714844 843.191406 463.359375 L 811.453125 423.101562 C 811.621094 422.921875 811.777344 422.738281 811.925781 422.542969 L 841.988281 439.15625 C 841.496094 440.480469 841.347656 441.96875 841.734375 443.535156 C 842.5 446.621094 845.195312 448.929688 848.363281 449.183594 C 852.761719 449.539062 856.445312 446.074219 856.445312 441.742188 C 856.445312 439.019531 854.980469 436.644531 852.796875 435.339844 C 856.273438 427.335938 861.125 417.566406 866.148438 407.929688 C 866.996094 406.304688 867.851562 404.675781 868.703125 403.066406 C 869.609375 403.308594 870.617188 403.308594 871.6875 402.824219 C 873.242188 402.125 874.351562 400.632812 874.464844 398.9375 C 874.566406 397.433594 873.941406 396.082031 872.917969 395.175781 C 877.703125 386.3125 882.125 378.398438 885.0625 373.195312 C 886.132812 373.605469 887.316406 373.789062 888.566406 373.648438 C 892.199219 373.242188 895.0625 370.164062 895.199219 366.507812 C 895.347656 362.386719 892.148438 358.984375 888.105469 358.789062 Z M 878.359375 284.703125 L 880.496094 305.832031 C 879.289062 306.144531 878.195312 306.753906 877.300781 307.574219 L 854.394531 289.183594 C 854.664062 288.597656 854.820312 287.949219 854.820312 287.261719 C 854.820312 287.136719 854.808594 287.011719 854.800781 286.890625 L 873.683594 281.636719 C 874.480469 283.429688 876.273438 284.6875 878.359375 284.703125 Z M 875.035156 314.535156 L 846.398438 324.957031 C 844.65625 320.90625 841.597656 317.558594 837.753906 315.460938 L 849.019531 291.699219 C 849.402344 291.800781 849.804688 291.863281 850.214844 291.863281 C 851.261719 291.863281 852.222656 291.511719 852.996094 290.925781 L 875.902344 309.3125 C 875.261719 310.414062 874.886719 311.691406 874.886719 313.058594 C 874.886719 313.5625 874.941406 314.058594 875.035156 314.535156 Z M 844.878906 343.335938 L 880.765625 363.578125 C 880.46875 364.371094 880.292969 365.222656 880.28125 366.117188 L 855.804688 369.445312 L 848.285156 370.46875 C 847.605469 368.773438 845.949219 367.574219 844.015625 367.574219 C 843.804688 367.574219 843.601562 367.59375 843.40625 367.617188 L 836.617188 350.550781 C 838.984375 349.449219 841.089844 347.894531 842.828125 345.996094 C 843.585938 345.171875 844.273438 344.285156 844.878906 343.335938 Z M 842.808594 259.597656 C 857.257812 266.273438 868.273438 273.144531 873.957031 276.945312 C 873.519531 277.675781 873.269531 278.527344 873.246094 279.4375 L 854.082031 284.769531 C 853.261719 283.503906 851.839844 282.664062 850.214844 282.664062 C 849.921875 282.664062 849.628906 282.691406 849.351562 282.746094 L 840.464844 261.890625 C 841.40625 261.308594 842.207031 260.527344 842.808594 259.597656 Z M 836.878906 262.992188 C 837.40625 262.96875 837.921875 262.890625 838.414062 262.765625 L 847.324219 283.6875 C 846.285156 284.53125 845.617188 285.816406 845.617188 287.261719 C 845.617188 288.582031 846.179688 289.769531 847.066406 290.609375 L 835.734375 314.503906 C 834.398438 313.960938 832.984375 313.558594 831.519531 313.320312 Z M 831.027344 260.554688 C 831.984375 261.609375 833.238281 262.382812 834.65625 262.753906 L 829.300781 313.082031 C 828.976562 313.066406 828.65625 313.058594 828.332031 313.058594 C 823.242188 313.058594 818.605469 314.988281 815.117188 318.160156 L 790.429688 293.882812 C 791.65625 292.550781 792.410156 290.78125 792.410156 288.828125 C 792.410156 288.011719 792.277344 287.226562 792.035156 286.496094 Z M 740.480469 437.601562 C 740.96875 437.777344 741.496094 437.878906 742.042969 437.878906 C 743.140625 437.878906 744.140625 437.496094 744.933594 436.859375 L 767.628906 454.019531 C 767.457031 454.421875 767.34375 454.859375 767.292969 455.316406 L 741.746094 458.800781 C 741.132812 457.171875 739.621094 455.976562 737.808594 455.839844 C 737.640625 450.050781 738.476562 443.921875 740.480469 437.601562 Z M 746.613281 432.75 L 799.074219 420.734375 C 799.367188 421.476562 799.769531 422.164062 800.273438 422.769531 L 774.03125 451.757812 C 773.386719 451.414062 772.652344 451.21875 771.867188 451.21875 C 770.769531 451.21875 769.765625 451.601562 768.980469 452.238281 L 746.28125 435.078125 C 746.515625 434.527344 746.648438 433.917969 746.648438 433.28125 C 746.648438 433.097656 746.636719 432.921875 746.613281 432.75 Z M 779.980469 500.015625 C 759.289062 497.914062 743.210938 483.996094 738.917969 464.773438 C 740.554688 464.222656 741.769531 462.777344 742.003906 461.023438 L 767.597656 457.527344 C 768.273438 459.222656 769.925781 460.421875 771.867188 460.421875 C 771.886719 460.421875 771.910156 460.417969 771.929688 460.417969 L 781.496094 496.515625 C 780.566406 497.355469 779.976562 498.570312 779.976562 499.925781 C 779.976562 499.957031 779.980469 499.988281 779.980469 500.015625 Z M 774.085938 459.847656 C 775.503906 459.0625 776.464844 457.554688 776.464844 455.816406 C 776.464844 454.871094 776.179688 453.988281 775.691406 453.257812 L 801.941406 424.25 C 802.296875 424.484375 802.671875 424.691406 803.066406 424.859375 L 784.625 495.324219 L 784.578125 495.324219 C 784.210938 495.324219 783.863281 495.371094 783.519531 495.453125 Z M 789.164062 500.171875 C 789.167969 500.09375 789.175781 500.007812 789.175781 499.925781 C 789.175781 499.105469 788.960938 498.339844 788.585938 497.671875 L 811.804688 466.5 C 812.324219 466.703125 812.886719 466.820312 813.476562 466.820312 C 815.167969 466.820312 816.640625 465.90625 817.441406 464.550781 L 839.429688 470.207031 C 839.515625 471.867188 840.125 473.386719 841.117188 474.585938 C 830.59375 485.246094 816.589844 494.78125 798.417969 498.835938 C 795.277344 499.539062 792.1875 499.980469 789.164062 500.171875 Z M 808.878906 462.214844 C 808.878906 463.359375 809.296875 464.398438 809.984375 465.203125 L 787.023438 496.035156 C 786.945312 495.984375 786.867188 495.933594 786.789062 495.890625 L 805.230469 425.421875 C 805.484375 425.449219 805.746094 425.464844 806.015625 425.464844 L 806.042969 425.464844 L 811.601562 458.019531 C 809.996094 458.738281 808.878906 460.34375 808.878906 462.214844 Z M 806.015625 410.535156 C 805.101562 410.535156 804.234375 410.707031 803.429688 411.007812 L 786.90625 381.085938 C 787.765625 380.246094 788.300781 379.078125 788.300781 377.785156 C 788.300781 376.910156 788.050781 376.097656 787.628906 375.402344 L 815.3125 347.453125 C 817.3125 349.222656 819.679688 350.59375 822.277344 351.433594 L 806.804688 410.578125 C 806.542969 410.550781 806.28125 410.535156 806.015625 410.535156 Z M 761.3125 320.703125 L 772.566406 306.523438 L 781.398438 295.398438 C 782.449219 295.96875 783.660156 296.292969 784.949219 296.292969 C 786.308594 296.292969 787.582031 295.925781 788.675781 295.289062 L 813.554688 319.753906 C 813.152344 320.210938 812.773438 320.683594 812.421875 321.175781 C 810.585938 323.695312 809.339844 326.671875 808.871094 329.902344 L 762.835938 325.878906 C 762.855469 325.671875 762.871094 325.46875 762.871094 325.257812 C 762.871094 323.539062 762.285156 321.964844 761.3125 320.703125 Z M 762.316406 328.078125 L 808.679688 332.128906 C 808.675781 332.324219 808.667969 332.523438 808.667969 332.722656 C 808.667969 334.769531 808.980469 336.742188 809.5625 338.601562 L 794.792969 344.164062 C 794.007812 342.75 792.503906 341.792969 790.769531 341.792969 C 789.492188 341.792969 788.339844 342.316406 787.503906 343.152344 L 762.28125 328.171875 C 762.292969 328.140625 762.300781 328.105469 762.316406 328.078125 Z M 791.382812 350.945312 C 793.632812 350.648438 795.371094 348.726562 795.371094 346.394531 L 795.371094 346.332031 L 810.355469 340.6875 C 811.203125 342.597656 812.34375 344.351562 813.722656 345.886719 L 786.046875 373.835938 C 785.992188 373.800781 785.9375 373.761719 785.878906 373.734375 Z M 791.015625 284.492188 C 789.957031 283.011719 788.375 281.9375 786.539062 281.539062 L 787.527344 263.90625 C 789.40625 263.546875 790.871094 262.050781 791.191406 260.160156 L 829.285156 257.226562 C 829.402344 257.738281 829.574219 258.234375 829.789062 258.699219 Z M 746.492188 244.15625 C 746.867188 244.074219 747.246094 243.996094 747.625 243.914062 C 754.816406 242.425781 762.402344 241.582031 770.3125 241.667969 C 791.667969 241.878906 812.074219 247.226562 829.285156 253.867188 C 829.195312 254.234375 829.140625 254.613281 829.109375 255 L 791.023438 257.933594 C 790.414062 256.109375 788.691406 254.789062 786.660156 254.789062 C 784.988281 254.789062 783.523438 255.6875 782.71875 257.027344 L 747.066406 246.203125 L 746.445312 246.011719 C 746.496094 245.660156 746.535156 245.304688 746.535156 244.9375 C 746.535156 244.671875 746.515625 244.410156 746.492188 244.15625 Z M 745.800781 248.144531 L 746.59375 248.386719 L 782.070312 259.160156 C 782.066406 259.234375 782.0625 259.3125 782.0625 259.386719 C 782.0625 261.457031 783.425781 263.203125 785.300781 263.785156 L 784.3125 281.398438 C 782.570312 281.546875 780.996094 282.292969 779.804688 283.429688 L 746.210938 250.394531 L 745.109375 249.3125 C 745.375 248.945312 745.601562 248.558594 745.800781 248.144531 Z M 732.351562 248.175781 C 733.050781 249.625 734.199219 250.8125 735.625 251.554688 L 726.246094 279.003906 C 726.121094 278.992188 725.992188 278.984375 725.863281 278.984375 C 724.109375 278.984375 722.582031 279.964844 721.808594 281.410156 L 689.785156 277.515625 C 689.738281 275.941406 689.210938 274.496094 688.332031 273.308594 C 697.742188 265.613281 713.070312 254.949219 732.351562 248.175781 Z M 749.3125 320.957031 L 689.089844 280.894531 C 689.265625 280.523438 689.40625 280.132812 689.519531 279.734375 L 721.261719 283.589844 C 721.265625 286.128906 723.324219 288.183594 725.863281 288.183594 C 726.429688 288.183594 726.96875 288.078125 727.46875 287.890625 L 749.894531 320.242188 C 749.6875 320.46875 749.488281 320.703125 749.3125 320.957031 Z M 751.628906 318.828125 L 729.308594 286.625 C 730.023438 285.816406 730.460938 284.753906 730.460938 283.585938 C 730.460938 281.964844 729.628906 280.542969 728.363281 279.726562 L 737.738281 252.277344 C 738.171875 252.351562 738.613281 252.402344 739.070312 252.402344 C 739.1875 252.402344 739.304688 252.390625 739.421875 252.382812 L 752.660156 318.324219 C 752.300781 318.464844 751.957031 318.632812 751.628906 318.828125 Z M 754.832031 317.820312 L 741.613281 251.949219 C 742.308594 251.695312 742.960938 251.339844 743.542969 250.902344 L 745.785156 253.105469 L 778.425781 285.203125 C 777.828125 286.28125 777.484375 287.515625 777.484375 288.828125 C 777.484375 290.863281 778.296875 292.699219 779.613281 294.046875 L 770.613281 305.386719 L 759.695312 319.152344 C 758.480469 318.296875 757.003906 317.792969 755.40625 317.792969 C 755.210938 317.792969 755.023438 317.808594 754.832031 317.820312 Z M 759.515625 331.484375 C 760.109375 331.089844 760.644531 330.613281 761.105469 330.070312 L 786.363281 345.074219 C 786.238281 345.492188 786.167969 345.933594 786.167969 346.394531 C 786.167969 348.363281 787.40625 350.035156 789.148438 350.695312 L 783.714844 373.1875 L 783.699219 373.1875 C 783.328125 373.1875 782.964844 373.238281 782.613281 373.320312 Z M 767.96875 398.269531 C 773.699219 393.164062 778.191406 387.632812 781.5625 381.859375 C 782.203125 382.195312 782.925781 382.386719 783.699219 382.386719 C 784.140625 382.386719 784.566406 382.320312 784.976562 382.207031 L 801.472656 412.085938 C 799.699219 413.453125 798.550781 415.589844 798.550781 418 C 798.550781 418.191406 798.566406 418.375 798.578125 418.5625 L 745.8125 430.640625 C 745.324219 429.945312 744.652344 429.394531 743.867188 429.050781 C 748.675781 418.9375 756.503906 408.492188 767.96875 398.269531 Z M 841.4375 464.746094 C 840.597656 465.640625 839.976562 466.738281 839.660156 467.960938 L 818.070312 462.40625 C 818.070312 462.34375 818.082031 462.285156 818.082031 462.214844 C 818.082031 459.785156 816.191406 457.800781 813.800781 457.632812 L 808.246094 425.125 C 808.761719 424.964844 809.246094 424.746094 809.703125 424.484375 Z M 809.863281 411.613281 C 809.574219 411.441406 809.273438 411.277344 808.964844 411.140625 L 824.441406 351.996094 C 825.695312 352.25 827 352.382812 828.332031 352.382812 C 830.503906 352.382812 832.59375 352.027344 834.542969 351.378906 L 841.332031 368.445312 C 840.171875 369.277344 839.414062 370.636719 839.414062 372.175781 C 839.414062 373.195312 839.75 374.132812 840.3125 374.894531 Z M 843.066406 437.203125 L 813.007812 420.59375 C 813.308594 419.785156 813.476562 418.914062 813.476562 418 C 813.476562 416.09375 812.757812 414.359375 811.582031 413.039062 L 842.027344 376.320312 C 842.367188 376.480469 842.730469 376.613281 843.113281 376.6875 L 847.328125 434.472656 C 845.605469 434.859375 844.113281 435.847656 843.066406 437.203125 Z M 865.539062 404.289062 C 860.011719 414.804688 854.550781 425.703125 850.730469 434.5 C 850.351562 434.40625 849.957031 434.34375 849.558594 434.3125 L 845.34375 376.578125 C 845.691406 376.472656 846.023438 376.324219 846.332031 376.144531 L 863.351562 393.542969 L 865.960938 396.210938 C 865.527344 396.917969 865.277344 397.738281 865.277344 398.625 C 865.277344 399.957031 865.84375 401.148438 866.746094 401.992188 C 866.34375 402.753906 865.9375 403.523438 865.539062 404.289062 Z M 870.9375 394.148438 C 870.597656 394.066406 870.242188 394.019531 869.875 394.019531 C 869.027344 394.019531 868.234375 394.253906 867.558594 394.652344 L 862.308594 389.289062 L 847.925781 374.582031 C 848.277344 374.015625 848.507812 373.371094 848.585938 372.679688 L 856.65625 371.585938 L 880.582031 368.332031 C 881.019531 369.835938 881.921875 371.140625 883.121094 372.089844 C 880.175781 377.3125 875.742188 385.25 870.9375 394.148438 Z M 881.867188 361.636719 L 845.980469 341.394531 C 847.265625 338.777344 847.996094 335.835938 847.996094 332.722656 C 847.996094 330.753906 847.699219 328.847656 847.160156 327.054688 L 875.796875 316.632812 C 877.011719 318.847656 879.3125 320.371094 881.984375 320.5 L 885.882812 359.011719 C 884.269531 359.421875 882.867188 360.359375 881.867188 361.636719 Z M 881.867188 361.636719 " fill-opacity="1" fill-rule="nonzero"/><path fill="#ffffff" d="M 765.371094 282.117188 C 765.371094 282.429688 765.3125 282.734375 765.191406 283.023438 C 765.070312 283.316406 764.898438 283.574219 764.675781 283.796875 C 764.453125 284.019531 764.195312 284.191406 763.902344 284.3125 C 763.613281 284.433594 763.308594 284.492188 762.992188 284.492188 C 762.679688 284.492188 762.375 284.433594 762.082031 284.3125 C 761.792969 284.191406 761.535156 284.019531 761.3125 283.796875 C 761.089844 283.574219 760.917969 283.316406 760.796875 283.023438 C 760.675781 282.734375 760.617188 282.429688 760.617188 282.117188 C 760.617188 281.800781 760.675781 281.496094 760.796875 281.207031 C 760.917969 280.914062 761.089844 280.65625 761.3125 280.433594 C 761.535156 280.210938 761.792969 280.039062 762.082031 279.917969 C 762.375 279.796875 762.679688 279.738281 762.992188 279.738281 C 763.308594 279.738281 763.613281 279.796875 763.902344 279.917969 C 764.195312 280.039062 764.453125 280.210938 764.675781 280.433594 C 764.898438 280.65625 765.070312 280.914062 765.191406 281.207031 C 765.3125 281.496094 765.371094 281.800781 765.371094 282.117188 Z M 765.371094 282.117188 " fill-opacity="1" fill-rule="nonzero"/><path fill="#ffffff" d="M 779.617188 248.6875 C 779.617188 249.035156 779.550781 249.375 779.417969 249.695312 C 779.28125 250.019531 779.089844 250.304688 778.84375 250.554688 C 778.597656 250.800781 778.308594 250.992188 777.988281 251.128906 C 777.664062 251.261719 777.324219 251.328125 776.976562 251.328125 C 776.625 251.328125 776.289062 251.261719 775.964844 251.128906 C 775.640625 250.992188 775.355469 250.800781 775.105469 250.554688 C 774.859375 250.304688 774.667969 250.019531 774.535156 249.695312 C 774.398438 249.375 774.332031 249.035156 774.332031 248.6875 C 774.332031 248.335938 774.398438 248 774.535156 247.675781 C 774.667969 247.351562 774.859375 247.066406 775.105469 246.816406 C 775.355469 246.570312 775.640625 246.378906 775.964844 246.242188 C 776.289062 246.109375 776.625 246.042969 776.976562 246.042969 C 777.324219 246.042969 777.664062 246.109375 777.988281 246.242188 C 778.308594 246.378906 778.597656 246.570312 778.84375 246.816406 C 779.089844 247.066406 779.28125 247.351562 779.417969 247.675781 C 779.550781 248 779.617188 248.335938 779.617188 248.6875 Z M 779.617188 248.6875 " fill-opacity="1" fill-rule="nonzero"/><path fill="#ffffff" d="M 829.285156 227.253906 C 829.285156 227.726562 829.238281 228.195312 829.144531 228.660156 C 829.054688 229.125 828.914062 229.574219 828.734375 230.011719 C 828.554688 230.453125 828.332031 230.867188 828.066406 231.261719 C 827.804688 231.65625 827.503906 232.019531 827.171875 232.355469 C 826.835938 232.691406 826.472656 232.988281 826.078125 233.253906 C 825.683594 233.515625 825.265625 233.738281 824.828125 233.917969 C 824.390625 234.101562 823.941406 234.238281 823.476562 234.328125 C 823.011719 234.421875 822.542969 234.46875 822.066406 234.46875 C 821.59375 234.46875 821.125 234.421875 820.660156 234.328125 C 820.195312 234.238281 819.742188 234.101562 819.304688 233.917969 C 818.867188 233.738281 818.453125 233.515625 818.058594 233.253906 C 817.664062 232.988281 817.300781 232.691406 816.964844 232.355469 C 816.628906 232.019531 816.332031 231.65625 816.066406 231.261719 C 815.804688 230.867188 815.582031 230.453125 815.402344 230.011719 C 815.21875 229.574219 815.082031 229.125 814.992188 228.660156 C 814.898438 228.195312 814.851562 227.726562 814.851562 227.253906 C 814.851562 226.777344 814.898438 226.308594 814.992188 225.84375 C 815.082031 225.378906 815.21875 224.929688 815.402344 224.492188 C 815.582031 224.054688 815.804688 223.636719 816.066406 223.242188 C 816.332031 222.847656 816.628906 222.484375 816.964844 222.148438 C 817.300781 221.8125 817.664062 221.515625 818.058594 221.253906 C 818.453125 220.988281 818.867188 220.765625 819.304688 220.585938 C 819.742188 220.402344 820.195312 220.265625 820.660156 220.175781 C 821.125 220.082031 821.59375 220.035156 822.066406 220.035156 C 822.542969 220.035156 823.011719 220.082031 823.476562 220.175781 C 823.941406 220.265625 824.390625 220.402344 824.828125 220.585938 C 825.265625 220.765625 825.683594 220.988281 826.078125 221.253906 C 826.472656 221.515625 826.835938 221.8125 827.171875 222.148438 C 827.503906 222.484375 827.804688 222.847656 828.066406 223.242188 C 828.332031 223.636719 828.554688 224.054688 828.734375 224.492188 C 828.914062 224.929688 829.054688 225.378906 829.144531 225.84375 C 829.238281 226.308594 829.285156 226.777344 829.285156 227.253906 Z M 829.285156 227.253906 " fill-opacity="1" fill-rule="nonzero"/><path fill="#ffffff" d="M 915.242188 275.992188 C 915.242188 276.28125 915.1875 276.5625 915.074219 276.835938 C 914.960938 277.105469 914.804688 277.34375 914.597656 277.550781 C 914.390625 277.757812 914.152344 277.914062 913.878906 278.027344 C 913.609375 278.140625 913.328125 278.195312 913.039062 278.195312 C 912.746094 278.195312 912.464844 278.140625 912.195312 278.027344 C 911.921875 277.914062 911.683594 277.757812 911.476562 277.550781 C 911.273438 277.34375 911.113281 277.105469 911 276.835938 C 910.890625 276.5625 910.832031 276.28125 910.832031 275.992188 C 910.832031 275.699219 910.890625 275.417969 911 275.148438 C 911.113281 274.878906 911.273438 274.640625 911.476562 274.433594 C 911.683594 274.226562 911.921875 274.066406 912.195312 273.953125 C 912.464844 273.84375 912.746094 273.785156 913.039062 273.785156 C 913.328125 273.785156 913.609375 273.84375 913.878906 273.953125 C 914.152344 274.066406 914.390625 274.226562 914.597656 274.433594 C 914.804688 274.640625 914.960938 274.878906 915.074219 275.148438 C 915.1875 275.417969 915.242188 275.699219 915.242188 275.992188 Z M 915.242188 275.992188 " fill-opacity="1" fill-rule="nonzero"/><path fill="#ffffff" d="M 904.117188 310.589844 C 904.117188 310.800781 904.078125 311.007812 903.996094 311.203125 C 903.914062 311.402344 903.796875 311.574219 903.648438 311.726562 C 903.496094 311.878906 903.320312 311.992188 903.125 312.074219 C 902.925781 312.15625 902.722656 312.199219 902.507812 312.199219 C 902.292969 312.199219 902.089844 312.15625 901.890625 312.074219 C 901.695312 311.992188 901.519531 311.878906 901.371094 311.726562 C 901.21875 311.574219 901.101562 311.402344 901.019531 311.203125 C 900.9375 311.007812 900.898438 310.800781 900.898438 310.589844 C 900.898438 310.375 900.9375 310.167969 901.019531 309.972656 C 901.101562 309.773438 901.21875 309.601562 901.371094 309.449219 C 901.519531 309.296875 901.695312 309.183594 901.890625 309.101562 C 902.089844 309.019531 902.292969 308.976562 902.507812 308.976562 C 902.722656 308.976562 902.925781 309.019531 903.125 309.101562 C 903.320312 309.183594 903.496094 309.296875 903.648438 309.449219 C 903.796875 309.601562 903.914062 309.773438 903.996094 309.972656 C 904.078125 310.167969 904.117188 310.375 904.117188 310.589844 Z M 904.117188 310.589844 " fill-opacity="1" fill-rule="nonzero"/><path fill="#ffffff" d="M 870.371094 246.046875 C 870.371094 246.433594 870.296875 246.808594 870.148438 247.167969 C 870 247.523438 869.789062 247.839844 869.515625 248.117188 C 869.242188 248.390625 868.925781 248.601562 868.566406 248.75 C 868.207031 248.898438 867.835938 248.972656 867.445312 248.972656 C 867.058594 248.972656 866.6875 248.898438 866.328125 248.75 C 865.96875 248.601562 865.652344 248.390625 865.378906 248.117188 C 865.105469 247.839844 864.894531 247.523438 864.746094 247.167969 C 864.597656 246.808594 864.523438 246.433594 864.523438 246.046875 C 864.523438 245.660156 864.597656 245.285156 864.746094 244.925781 C 864.894531 244.570312 865.105469 244.253906 865.378906 243.980469 C 865.652344 243.703125 865.96875 243.492188 866.328125 243.34375 C 866.6875 243.195312 867.058594 243.121094 867.445312 243.121094 C 867.835938 243.121094 868.207031 243.195312 868.566406 243.34375 C 868.925781 243.492188 869.242188 243.703125 869.515625 243.980469 C 869.789062 244.253906 870 244.570312 870.148438 244.925781 C 870.296875 245.285156 870.371094 245.660156 870.371094 246.046875 Z M 870.371094 246.046875 " fill-opacity="1" fill-rule="nonzero"/><path fill="#ffffff" d="M 908.878906 343.339844 C 908.878906 343.613281 908.851562 343.882812 908.796875 344.152344 C 908.742188 344.417969 908.664062 344.679688 908.558594 344.933594 C 908.457031 345.183594 908.328125 345.425781 908.175781 345.652344 C 908.023438 345.878906 907.851562 346.089844 907.65625 346.285156 C 907.464844 346.476562 907.253906 346.648438 907.027344 346.800781 C 906.796875 346.953125 906.558594 347.082031 906.304688 347.1875 C 906.054688 347.292969 905.792969 347.371094 905.523438 347.421875 C 905.257812 347.476562 904.984375 347.503906 904.710938 347.503906 C 904.4375 347.503906 904.167969 347.476562 903.898438 347.421875 C 903.632812 347.371094 903.371094 347.292969 903.117188 347.1875 C 902.867188 347.082031 902.625 346.953125 902.398438 346.800781 C 902.171875 346.648438 901.960938 346.476562 901.769531 346.285156 C 901.574219 346.089844 901.402344 345.878906 901.25 345.652344 C 901.097656 345.425781 900.96875 345.183594 900.863281 344.933594 C 900.761719 344.679688 900.679688 344.417969 900.628906 344.152344 C 900.574219 343.882812 900.546875 343.613281 900.546875 343.339844 C 900.546875 343.066406 900.574219 342.792969 900.628906 342.527344 C 900.679688 342.257812 900.761719 341.996094 900.863281 341.746094 C 900.96875 341.492188 901.097656 341.253906 901.25 341.023438 C 901.402344 340.796875 901.574219 340.585938 901.769531 340.394531 C 901.960938 340.199219 902.171875 340.027344 902.398438 339.875 C 902.625 339.722656 902.867188 339.597656 903.117188 339.492188 C 903.371094 339.386719 903.632812 339.308594 903.898438 339.253906 C 904.167969 339.203125 904.4375 339.175781 904.710938 339.175781 C 904.984375 339.175781 905.257812 339.203125 905.523438 339.253906 C 905.792969 339.308594 906.054688 339.386719 906.304688 339.492188 C 906.558594 339.597656 906.796875 339.722656 907.027344 339.875 C 907.253906 340.027344 907.464844 340.199219 907.65625 340.394531 C 907.851562 340.585938 908.023438 340.796875 908.175781 341.027344 C 908.328125 341.253906 908.457031 341.492188 908.558594 341.746094 C 908.664062 341.996094 908.742188 342.257812 908.796875 342.527344 C 908.851562 342.792969 908.878906 343.066406 908.878906 343.339844 Z M 908.878906 343.339844 " fill-opacity="1" fill-rule="nonzero"/><path fill="#ffffff" d="M 883.121094 434.808594 C 883.121094 435.289062 883.03125 435.75 882.847656 436.191406 C 882.664062 436.632812 882.40625 437.023438 882.066406 437.363281 C 881.726562 437.699219 881.335938 437.960938 880.894531 438.144531 C 880.453125 438.328125 879.992188 438.417969 879.515625 438.417969 C 879.035156 438.417969 878.574219 438.328125 878.132812 438.144531 C 877.691406 437.960938 877.300781 437.699219 876.964844 437.363281 C 876.625 437.023438 876.363281 436.632812 876.179688 436.191406 C 876 435.75 875.90625 435.289062 875.90625 434.808594 C 875.90625 434.332031 876 433.871094 876.179688 433.429688 C 876.363281 432.988281 876.625 432.597656 876.964844 432.257812 C 877.300781 431.921875 877.691406 431.660156 878.132812 431.476562 C 878.574219 431.292969 879.035156 431.203125 879.515625 431.203125 C 879.992188 431.203125 880.453125 431.292969 880.894531 431.476562 C 881.335938 431.660156 881.726562 431.921875 882.066406 432.257812 C 882.40625 432.597656 882.664062 432.988281 882.847656 433.429688 C 883.03125 433.871094 883.121094 434.332031 883.121094 434.808594 Z M 883.121094 434.808594 " fill-opacity="1" fill-rule="nonzero"/><path fill="#ffffff" d="M 829.792969 369.839844 C 829.792969 370.148438 829.734375 370.441406 829.617188 370.726562 C 829.5 371.011719 829.332031 371.261719 829.113281 371.480469 C 828.894531 371.699219 828.644531 371.867188 828.359375 371.984375 C 828.074219 372.101562 827.78125 372.160156 827.472656 372.160156 C 827.164062 372.160156 826.867188 372.101562 826.582031 371.984375 C 826.296875 371.867188 826.046875 371.699219 825.828125 371.480469 C 825.613281 371.261719 825.445312 371.011719 825.324219 370.726562 C 825.207031 370.445312 825.148438 370.148438 825.148438 369.839844 C 825.148438 369.53125 825.207031 369.234375 825.324219 368.949219 C 825.445312 368.664062 825.613281 368.414062 825.828125 368.195312 C 826.046875 367.980469 826.296875 367.8125 826.582031 367.695312 C 826.867188 367.574219 827.164062 367.515625 827.472656 367.515625 C 827.78125 367.515625 828.074219 367.574219 828.359375 367.695312 C 828.644531 367.8125 828.894531 367.980469 829.113281 368.195312 C 829.332031 368.414062 829.5 368.664062 829.617188 368.949219 C 829.734375 369.234375 829.792969 369.53125 829.792969 369.839844 Z M 829.792969 369.839844 " fill-opacity="1" fill-rule="nonzero"/><path fill="#ffffff" d="M 837.753906 406.867188 C 837.753906 407.074219 837.710938 407.269531 837.632812 407.460938 C 837.554688 407.648438 837.445312 407.816406 837.300781 407.960938 C 837.152344 408.105469 836.988281 408.21875 836.796875 408.296875 C 836.609375 408.375 836.410156 408.414062 836.207031 408.414062 C 836 408.414062 835.800781 408.375 835.613281 408.296875 C 835.421875 408.21875 835.257812 408.105469 835.109375 407.960938 C 834.964844 407.816406 834.855469 407.648438 834.777344 407.460938 C 834.699219 407.269531 834.65625 407.074219 834.65625 406.867188 C 834.65625 406.664062 834.699219 406.464844 834.777344 406.277344 C 834.855469 406.085938 834.964844 405.917969 835.109375 405.773438 C 835.257812 405.628906 835.421875 405.519531 835.613281 405.4375 C 835.800781 405.359375 836 405.320312 836.207031 405.320312 C 836.410156 405.320312 836.609375 405.359375 836.796875 405.4375 C 836.988281 405.519531 837.152344 405.628906 837.300781 405.773438 C 837.445312 405.917969 837.554688 406.085938 837.632812 406.277344 C 837.710938 406.464844 837.753906 406.664062 837.753906 406.867188 Z M 837.753906 406.867188 " fill-opacity="1" fill-rule="nonzero"/><path fill="#ffffff" d="M 779.617188 407.964844 C 779.617188 408.316406 779.550781 408.652344 779.417969 408.976562 C 779.28125 409.300781 779.089844 409.585938 778.84375 409.832031 C 778.597656 410.082031 778.308594 410.273438 777.988281 410.40625 C 777.664062 410.539062 777.324219 410.605469 776.976562 410.605469 C 776.625 410.605469 776.289062 410.539062 775.964844 410.40625 C 775.640625 410.273438 775.355469 410.082031 775.105469 409.832031 C 774.859375 409.585938 774.667969 409.300781 774.535156 408.976562 C 774.398438 408.652344 774.332031 408.316406 774.332031 407.964844 C 774.332031 407.613281 774.398438 407.277344 774.535156 406.953125 C 774.667969 406.628906 774.859375 406.34375 775.105469 406.09375 C 775.355469 405.847656 775.640625 405.65625 775.964844 405.523438 C 776.289062 405.386719 776.625 405.320312 776.976562 405.320312 C 777.324219 405.320312 777.664062 405.386719 777.988281 405.523438 C 778.308594 405.65625 778.597656 405.847656 778.84375 406.09375 C 779.089844 406.34375 779.28125 406.628906 779.417969 406.953125 C 779.550781 407.277344 779.617188 407.613281 779.617188 407.964844 Z M 779.617188 407.964844 " fill-opacity="1" fill-rule="nonzero"/><path fill="#ffffff" d="M 822.277344 289.269531 C 822.277344 289.761719 822.183594 290.234375 821.996094 290.6875 C 821.808594 291.144531 821.539062 291.546875 821.191406 291.894531 C 820.84375 292.242188 820.441406 292.511719 819.984375 292.699219 C 819.53125 292.886719 819.058594 292.980469 818.566406 292.980469 C 818.074219 292.980469 817.597656 292.886719 817.144531 292.699219 C 816.6875 292.511719 816.289062 292.242188 815.9375 291.894531 C 815.589844 291.546875 815.324219 291.144531 815.132812 290.6875 C 814.945312 290.234375 814.851562 289.761719 814.851562 289.269531 C 814.851562 288.777344 814.945312 288.300781 815.132812 287.847656 C 815.324219 287.390625 815.589844 286.992188 815.9375 286.640625 C 816.289062 286.292969 816.6875 286.027344 817.144531 285.835938 C 817.597656 285.648438 818.074219 285.554688 818.566406 285.554688 C 819.058594 285.554688 819.53125 285.648438 819.984375 285.835938 C 820.441406 286.027344 820.84375 286.292969 821.191406 286.640625 C 821.539062 286.992188 821.808594 287.390625 821.996094 287.847656 C 822.183594 288.300781 822.277344 288.777344 822.277344 289.269531 Z M 822.277344 289.269531 " fill-opacity="1" fill-rule="nonzero"/><path fill="#ffffff" d="M 909.230469 237.472656 C 909.230469 237.808594 909.199219 238.140625 909.132812 238.472656 C 909.066406 238.800781 908.96875 239.121094 908.839844 239.429688 C 908.714844 239.742188 908.554688 240.035156 908.371094 240.3125 C 908.183594 240.59375 907.972656 240.851562 907.734375 241.089844 C 907.496094 241.328125 907.238281 241.539062 906.957031 241.726562 C 906.679688 241.910156 906.386719 242.070312 906.074219 242.199219 C 905.765625 242.324219 905.445312 242.421875 905.117188 242.488281 C 904.785156 242.554688 904.453125 242.585938 904.117188 242.585938 C 903.78125 242.585938 903.449219 242.554688 903.121094 242.488281 C 902.792969 242.421875 902.472656 242.324219 902.160156 242.195312 C 901.851562 242.070312 901.558594 241.910156 901.277344 241.726562 C 901 241.539062 900.738281 241.328125 900.503906 241.089844 C 900.265625 240.851562 900.054688 240.59375 899.867188 240.3125 C 899.679688 240.035156 899.523438 239.742188 899.394531 239.429688 C 899.265625 239.121094 899.167969 238.800781 899.105469 238.472656 C 899.039062 238.140625 899.003906 237.808594 899.003906 237.472656 C 899.003906 237.136719 899.039062 236.804688 899.105469 236.476562 C 899.167969 236.148438 899.265625 235.828125 899.394531 235.515625 C 899.523438 235.207031 899.679688 234.914062 899.867188 234.632812 C 900.054688 234.355469 900.265625 234.09375 900.503906 233.859375 C 900.738281 233.621094 901 233.410156 901.277344 233.222656 C 901.558594 233.035156 901.851562 232.878906 902.160156 232.75 C 902.472656 232.621094 902.792969 232.523438 903.121094 232.457031 C 903.449219 232.394531 903.78125 232.359375 904.117188 232.359375 C 904.453125 232.359375 904.785156 232.394531 905.117188 232.457031 C 905.445312 232.523438 905.765625 232.621094 906.074219 232.75 C 906.386719 232.878906 906.679688 233.035156 906.957031 233.222656 C 907.238281 233.410156 907.496094 233.621094 907.734375 233.859375 C 907.972656 234.09375 908.183594 234.355469 908.371094 234.632812 C 908.554688 234.914062 908.714844 235.207031 908.84375 235.515625 C 908.96875 235.828125 909.066406 236.148438 909.132812 236.476562 C 909.199219 236.804688 909.230469 237.136719 909.230469 237.472656 Z M 909.230469 237.472656 " fill-opacity="1" fill-rule="nonzero"/><g mask="url(#fdd5056a11)"><g transform="matrix(1, 0, 0, 1, 640, 318)"><g clip-path="url(#eef1d9c71b)"><g clip-path="url(#7343090ce4)"><path fill="#ffffff" d="M 74.492188 228.808594 C 76.636719 225.933594 109.316406 181.359375 78.964844 177.714844 C 78.226562 177.625 77.445312 177.5625 76.632812 177.523438 C 41.214844 175.835938 27.050781 175.914062 32.585938 155.824219 C 36.046875 143.269531 31.652344 137.675781 27.875 135.246094 C 26.039062 134.070312 25.894531 131.421875 27.535156 129.976562 L 33.816406 124.457031 L 25.605469 122.34375 C 22.292969 121.496094 20.5 117.886719 21.863281 114.75 C 23.53125 110.902344 24.515625 106.253906 20.695312 104.570312 C 16.921875 102.898438 10.199219 100.695312 4.828125 99.023438 C 1.03125 97.839844 -0.339844 93.179688 2.203125 90.128906 C 11.003906 79.589844 27.550781 58.703125 30.53125 47.367188 C 33.507812 36.070312 26.894531 15.949219 23.652344 0.496094 C 23.648438 0.488281 23.648438 0.480469 23.648438 0.472656 C 23.648438 0.46875 23.648438 0.46875 23.648438 0.46875 C 23.648438 0.46875 23.652344 0.46875 23.65625 0.472656 L 73.355469 13.316406 L 91.261719 17.941406 C 95.484375 19.027344 99.207031 21.53125 101.8125 25.03125 L 102.160156 25.480469 L 123.730469 53.539062 C 125.527344 55.871094 125.90625 59.003906 124.71875 61.707031 L 116.945312 79.355469 C 116.945312 79.355469 46.917969 148.210938 97.789062 174.996094 C 148.660156 201.78125 167.902344 175.792969 217.992188 183.429688 C 172.808594 183.855469 125.464844 196.144531 74.382812 228.957031 C 74.386719 228.953125 74.390625 228.941406 74.394531 228.9375 Z M 74.492188 228.808594 " fill-opacity="1" fill-rule="nonzero"/></g></g></g></g><g mask="url(#783aa5d2cf)"><g transform="matrix(1, 0, 0, 1, 640, 318)"><g clip-path="url(#7638f90db2)"><g clip-path="url(#dcba0d1164)"><path fill="#01ffff" d="M 93.761719 102.734375 C 72.207031 144.035156 74.109375 166.453125 78.964844 177.714844 C 78.226562 177.625 77.445312 177.5625 76.632812 177.523438 C 41.214844 175.835938 27.050781 175.914062 32.585938 155.824219 C 36.046875 143.269531 31.652344 137.675781 27.875 135.246094 C 26.039062 134.070312 25.894531 131.421875 27.535156 129.976562 L 33.816406 124.457031 L 25.605469 122.34375 C 22.292969 121.496094 20.5 117.886719 21.863281 114.75 C 23.53125 110.902344 24.515625 106.253906 20.695312 104.570312 C 16.921875 102.898438 10.199219 100.695312 4.828125 99.023438 C 1.03125 97.839844 -0.339844 93.179688 2.203125 90.128906 C 11.003906 79.589844 27.550781 58.703125 30.53125 47.367188 C 33.507812 36.070312 26.894531 15.949219 23.652344 0.496094 C 23.648438 0.488281 23.648438 0.480469 23.648438 0.472656 C 23.648438 0.46875 23.648438 0.46875 23.648438 0.46875 C 23.648438 0.46875 23.652344 0.46875 23.65625 0.472656 L 73.355469 13.316406 L 91.261719 17.941406 C 95.484375 19.027344 99.207031 21.53125 101.8125 25.03125 L 102.160156 25.480469 C 109.738281 38.835938 114.457031 63.082031 93.761719 102.734375 Z M 93.761719 102.734375 " fill-opacity="1" fill-rule="nonzero"/></g></g></g></g><g mask="url(#4ae92de7d1)"><g transform="matrix(1, 0, 0, 1, 640, 318)"><g clip-path="url(#b8df7dc92e)"><g clip-path="url(#94c540ef79)"><path fill="#ffffff" d="M 74.492188 228.808594 C 76.6875 225.863281 110.925781 179.164062 76.632812 177.523438 C 41.214844 175.835938 27.050781 175.914062 32.585938 155.824219 C 36.046875 143.269531 31.652344 137.675781 27.875 135.246094 C 26.039062 134.070312 25.894531 131.421875 27.535156 129.976562 L 33.816406 124.457031 L 25.605469 122.34375 C 22.292969 121.496094 20.5 117.886719 21.863281 114.75 C 23.53125 110.902344 24.515625 106.253906 20.695312 104.570312 C 16.921875 102.898438 10.199219 100.695312 4.828125 99.023438 C 1.03125 97.839844 -0.339844 93.179688 2.203125 90.128906 C 11.003906 79.589844 27.550781 58.703125 30.53125 47.367188 C 33.507812 36.070312 26.894531 15.949219 23.652344 0.496094 C 23.648438 0.488281 23.648438 0.480469 23.648438 0.472656 C 23.648438 0.46875 23.648438 0.46875 23.648438 0.46875 C 23.648438 0.46875 23.652344 0.46875 23.65625 0.472656 L 73.355469 13.316406 L 79.824219 23.222656 C 91.664062 41.355469 93.085938 64.386719 83.570312 83.839844 L 72.746094 105.96875 C 60.109375 131.804688 72.648438 162.890625 99.671875 172.726562 C 111.320312 176.96875 114.347656 192.039062 105.234375 200.449219 Z M 74.492188 228.808594 " fill-opacity="1" fill-rule="nonzero"/></g></g></g></g><g mask="url(#5ac790b65d)"><g transform="matrix(1, 0, 0, 1, 679, 288)"><g clip-path="url(#3055d1afb6)"><g clip-path="url(#e101fc953d)"><path fill="#01ffff" d="M 90.472656 91.769531 C 92.398438 89.0625 92.46875 85.453125 90.648438 82.667969 L 67.382812 47.132812 C 65.726562 44.601562 63.496094 42.503906 60.875 41.003906 L 0.554688 6.527344 C 6.46875 4.003906 12.269531 2.105469 17.921875 0.785156 L 69.726562 38.398438 C 71.242188 39.5 72.480469 40.941406 73.347656 42.605469 L 93.175781 80.878906 C 95.492188 85.351562 94.785156 90.792969 91.398438 94.523438 L 77.945312 109.351562 Z M 90.472656 91.769531 " fill-opacity="1" fill-rule="nonzero"/></g></g></g></g><path fill="#ffffff" d="M 769.472656 379.769531 C 771.398438 377.0625 771.46875 373.453125 769.648438 370.667969 L 746.382812 335.132812 C 744.726562 332.601562 742.496094 330.503906 739.875 329.003906 L 679.554688 294.527344 C 685.46875 292.003906 691.269531 290.105469 696.921875 288.785156 L 748.726562 326.398438 C 750.242188 327.5 751.480469 328.941406 752.347656 330.605469 L 772.175781 368.878906 C 774.492188 373.351562 773.785156 378.792969 770.398438 382.523438 L 756.945312 397.351562 Z M 769.472656 379.769531 " fill-opacity="1" fill-rule="nonzero"/><g mask="url(#99d700e5ac)"><g transform="matrix(1, 0, 0, 1, 640, 318)"><g clip-path="url(#1477c10c21)"><g clip-path="url(#3d6d02cb3f)"><path fill="#ffffff" d="M 101.289062 191.511719 C 101.289062 195.46875 99.9375 199.476562 97.058594 202.792969 L 74.492188 228.808594 C 76.375 226.28125 101.855469 191.535156 87.375 180.6875 C 86.507812 180.035156 85.492188 179.472656 84.316406 179.003906 C 82.261719 178.1875 79.726562 177.671875 76.632812 177.523438 C 41.214844 175.835938 27.050781 175.914062 32.585938 155.824219 C 36.046875 143.269531 31.652344 137.675781 27.875 135.246094 C 26.039062 134.070312 25.894531 131.421875 27.535156 129.976562 L 33.816406 124.457031 L 25.605469 122.34375 C 22.292969 121.496094 20.5 117.886719 21.863281 114.75 C 23.53125 110.902344 24.515625 106.253906 20.695312 104.570312 C 16.921875 102.898438 10.199219 100.695312 4.828125 99.023438 C 1.03125 97.839844 -0.339844 93.179688 2.203125 90.128906 C 8.957031 82.042969 20.269531 67.863281 26.515625 56.582031 C 28.410156 53.160156 29.839844 50.003906 30.53125 47.367188 C 33.507812 36.070312 26.894531 15.949219 23.652344 0.496094 C 23.648438 0.488281 23.648438 0.480469 23.648438 0.472656 C 23.652344 0.472656 23.65625 0.472656 23.65625 0.472656 L 47.300781 29.898438 C 61.625 47.726562 66.410156 71.394531 60.132812 93.382812 L 55.691406 108.941406 C 47.703125 136.921875 63.109375 166.238281 90.679688 175.539062 C 97.480469 178.382812 101.289062 184.875 101.289062 191.511719 Z M 101.289062 191.511719 " fill-opacity="1" fill-rule="nonzero"/></g></g></g></g><path fill="#ffffff" d="M 724.316406 497.003906 C 722.261719 496.1875 719.726562 495.671875 716.632812 495.523438 C 681.214844 493.835938 667.050781 493.914062 672.585938 473.824219 C 676.046875 461.269531 671.652344 455.675781 667.875 453.246094 C 666.039062 452.070312 665.894531 449.421875 667.535156 447.976562 L 673.816406 442.457031 L 665.605469 440.34375 C 662.292969 439.496094 660.5 435.886719 661.863281 432.75 C 663.53125 428.902344 664.515625 424.253906 660.695312 422.570312 C 656.921875 420.898438 650.199219 418.695312 644.828125 417.023438 C 641.03125 415.839844 639.660156 411.179688 642.203125 408.128906 C 648.957031 400.042969 660.269531 385.863281 666.515625 374.582031 C 676.246094 387.457031 681.773438 403.175781 682.09375 419.550781 L 682.429688 436.617188 C 682.890625 459.960938 695.777344 481.285156 716.222656 492.546875 Z M 724.316406 497.003906 " fill-opacity="1" fill-rule="nonzero"/><g mask="url(#7d477ae273)"><g transform="matrix(1, 0, 0, 1, 745, 239)"><g clip-path="url(#fdb24322f0)"><g clip-path="url(#ed5062cdd9)"><path fill="#ffffff" d="M 143.105469 119.789062 L 139.207031 81.277344 C 142.429688 80.457031 144.816406 77.539062 144.816406 74.058594 C 144.816406 70.058594 141.671875 66.804688 137.71875 66.609375 L 135.554688 45.230469 C 137.457031 44.359375 138.738281 42.363281 138.539062 40.09375 C 138.332031 37.660156 136.378906 35.667969 133.953125 35.417969 C 132.667969 35.285156 131.46875 35.625 130.503906 36.28125 C 125.230469 32.730469 115.125 26.351562 101.898438 19.996094 C 100.878906 19.507812 99.824219 19.011719 98.742188 18.511719 C 99.105469 17.191406 99.144531 15.742188 98.613281 14.207031 C 97.625 11.34375 95.007812 9.265625 91.980469 9.089844 C 89.0625 8.925781 86.488281 10.445312 85.121094 12.757812 C 68.335938 6.3125 47.410156 0.652344 25.335938 0.433594 C 18.039062 0.371094 10.671875 1.082031 3.265625 2.558594 C 3.042969 3.332031 2.828125 4.121094 2.625 4.914062 C 9.816406 3.425781 17.402344 2.582031 25.3125 2.667969 C 46.667969 2.878906 67.074219 8.226562 84.285156 14.867188 C 84.195312 15.234375 84.140625 15.613281 84.109375 16 L 46.023438 18.933594 C 45.414062 17.109375 43.691406 15.789062 41.660156 15.789062 C 39.988281 15.789062 38.523438 16.6875 37.71875 18.027344 L 2.066406 7.203125 C 1.894531 7.921875 1.734375 8.652344 1.59375 9.386719 L 37.070312 20.160156 C 37.066406 20.234375 37.0625 20.3125 37.0625 20.386719 C 37.0625 22.457031 38.425781 24.203125 40.300781 24.785156 L 39.3125 42.398438 C 37.570312 42.546875 35.996094 43.292969 34.804688 44.429688 L 1.210938 11.394531 C 1.050781 12.292969 0.90625 13.195312 0.785156 14.105469 L 33.425781 46.203125 C 32.828125 47.28125 32.484375 48.515625 32.484375 49.828125 C 32.484375 51.863281 33.296875 53.699219 34.613281 55.046875 L 25.613281 66.386719 C 26.25 66.769531 26.898438 67.148438 27.566406 67.523438 L 36.398438 56.398438 C 37.449219 56.96875 38.660156 57.292969 39.949219 57.292969 C 41.308594 57.292969 42.582031 56.925781 43.675781 56.289062 L 68.554688 80.753906 C 68.152344 81.210938 67.773438 81.683594 67.421875 82.175781 C 80.058594 87.828125 90.019531 96.457031 97.828125 106.996094 C 98.585938 106.171875 99.273438 105.285156 99.878906 104.335938 L 135.765625 124.578125 C 135.46875 125.371094 135.292969 126.222656 135.28125 127.117188 L 110.804688 130.445312 C 111.09375 131.15625 111.378906 131.867188 111.65625 132.585938 L 135.582031 129.332031 C 136.019531 130.835938 136.921875 132.140625 138.121094 133.089844 C 135.175781 138.3125 130.742188 146.25 125.9375 155.148438 C 125.597656 155.066406 125.242188 155.019531 124.875 155.019531 C 124.027344 155.019531 123.234375 155.253906 122.558594 155.652344 L 117.308594 150.289062 C 117.671875 151.699219 118.019531 153.121094 118.351562 154.542969 C 119.175781 158.09375 119.902344 161.683594 120.539062 165.289062 C 120.753906 166.5 120.953125 167.710938 121.148438 168.929688 C 121.996094 167.304688 122.851562 165.675781 123.703125 164.066406 C 124.609375 164.308594 125.617188 164.308594 126.6875 163.828125 C 128.242188 163.125 129.351562 161.632812 129.464844 159.9375 C 129.566406 158.433594 128.941406 157.082031 127.917969 156.175781 C 132.703125 147.3125 137.125 139.398438 140.0625 134.195312 C 141.132812 134.605469 142.316406 134.789062 143.566406 134.648438 C 147.199219 134.242188 150.0625 131.164062 150.199219 127.507812 C 150.347656 123.386719 147.148438 119.984375 143.105469 119.789062 Z M 133.359375 45.703125 L 135.496094 66.832031 C 134.289062 67.144531 133.195312 67.753906 132.300781 68.574219 L 109.394531 50.183594 C 109.664062 49.597656 109.820312 48.949219 109.820312 48.261719 C 109.820312 48.136719 109.808594 48.011719 109.800781 47.890625 L 128.683594 42.636719 C 129.480469 44.429688 131.273438 45.6875 133.359375 45.703125 Z M 97.808594 20.597656 C 112.257812 27.273438 123.273438 34.144531 128.957031 37.945312 C 128.519531 38.675781 128.269531 39.527344 128.246094 40.4375 L 109.082031 45.769531 C 108.261719 44.503906 106.839844 43.664062 105.214844 43.664062 C 104.921875 43.664062 104.628906 43.691406 104.351562 43.746094 L 95.464844 22.890625 C 96.40625 22.308594 97.207031 21.527344 97.808594 20.597656 Z M 41.539062 42.539062 L 42.527344 24.90625 C 44.40625 24.546875 45.871094 23.050781 46.191406 21.160156 L 84.285156 18.226562 C 84.402344 18.738281 84.574219 19.234375 84.789062 19.699219 L 46.015625 45.492188 C 44.957031 44.011719 43.375 42.9375 41.539062 42.539062 Z M 83.332031 74.058594 C 78.242188 74.058594 73.605469 75.988281 70.117188 79.160156 L 45.429688 54.882812 C 46.65625 53.550781 47.410156 51.78125 47.410156 49.828125 C 47.410156 49.011719 47.277344 48.226562 47.035156 47.496094 L 86.027344 21.554688 C 86.984375 22.609375 88.238281 23.382812 89.65625 23.753906 L 84.300781 74.082031 C 83.976562 74.066406 83.65625 74.058594 83.332031 74.058594 Z M 86.519531 74.320312 L 91.878906 23.992188 C 92.40625 23.96875 92.921875 23.890625 93.414062 23.765625 L 102.324219 44.6875 C 101.285156 45.53125 100.617188 46.816406 100.617188 48.261719 C 100.617188 49.582031 101.179688 50.769531 102.066406 51.609375 L 90.734375 75.503906 C 89.398438 74.960938 87.984375 74.558594 86.519531 74.320312 Z M 92.753906 76.460938 L 104.019531 52.699219 C 104.402344 52.800781 104.804688 52.863281 105.214844 52.863281 C 106.261719 52.863281 107.222656 52.511719 107.996094 51.925781 L 130.902344 70.3125 C 130.261719 71.414062 129.886719 72.691406 129.886719 74.058594 C 129.886719 74.5625 129.941406 75.058594 130.035156 75.535156 L 101.398438 85.957031 C 99.65625 81.90625 96.597656 78.558594 92.753906 76.460938 Z M 136.867188 122.636719 L 100.980469 102.394531 C 102.265625 99.777344 102.996094 96.835938 102.996094 93.722656 C 102.996094 91.753906 102.699219 89.847656 102.160156 88.054688 L 130.796875 77.632812 C 132.011719 79.847656 134.3125 81.371094 136.984375 81.5 L 140.882812 120.011719 C 139.269531 120.421875 137.867188 121.359375 136.867188 122.636719 Z M 136.867188 122.636719 " fill-opacity="1" fill-rule="nonzero"/></g></g></g></g><g fill="#01ffff" fill-opacity="1"><g transform="translate(584.171923, 487.579891)"><g><path d="M 218.617188 180.707031 C 231.914062 152.640625 231.914062 125.066406 231.914062 122.605469 C 231.914062 97.492188 246.683594 73.367188 275.242188 73.367188 C 306.753906 73.367188 323.003906 95.523438 323.003906 122.605469 C 323.003906 148.207031 309.710938 169.871094 281.644531 170.859375 C 280.167969 170.859375 277.707031 173.320312 277.707031 176.273438 L 277.707031 237.820312 C 277.707031 241.269531 280.167969 243.730469 281.644531 243.238281 C 348.609375 242.253906 393.90625 190.0625 393.90625 122.605469 C 393.90625 59.578125 349.101562 0 275.242188 0 C 229.453125 0 194.492188 23.140625 175.78125 64.011719 C 162.488281 92.570312 162.488281 119.15625 162.488281 122.605469 C 161.503906 144.761719 143.777344 171.84375 114.726562 171.84375 C 88.628906 171.84375 70.902344 148.699219 70.902344 122.605469 C 70.902344 122.605469 70.902344 122.605469 70.902344 122.113281 L 0 122.113281 C 0 122.605469 0 122.605469 0 122.605469 C 0 185.628906 40.867188 244.714844 114.726562 244.714844 C 161.011719 244.714844 199.414062 222.066406 218.617188 180.707031 Z M 218.617188 180.707031 "/></g></g></g></svg>